<svg xmlns="http://www.w3.org/2000/svg" xmlns:xlink="http://www.w3.org/1999/xlink" xml:space="preserve" viewBox="0 0 512 512"><path fill="#d9dcdf" d="M399.49 129.902v260.033c0 28.613 22.677 52.552 51.287 53.029 29.225.488 53.07-23.056 53.07-52.171V164.688c0-19.211-15.574-34.786-34.786-34.786H399.49z"/><g><path fill="#f6f6f7" d="M469.062 129.902H277.741v191.321h156.535V164.688c0-19.212 15.574-34.786 34.786-34.786z"/><path fill="#f6f6f7" d="M399.49 390.794V69.028H8.153v321.766c0 28.818 23.361 52.178 52.178 52.178h391.338c-28.818 0-52.179-23.36-52.179-52.178z"/></g><path fill="#ff8c78" d="M8.153 69.028h391.338v130.446H8.153z"/><path fill="#8e959f" d="M60.331 234.259h104.357v86.964H60.331z"/><path d="M503.847 281.546a8.151 8.151 0 0 0 8.153-8.153V164.688c0-23.676-19.262-42.938-42.938-42.938h-61.418V69.028a8.151 8.151 0 0 0-8.153-8.153H8.153A8.151 8.151 0 0 0 0 69.028v247.847c0 4.504 3.649 8.153 8.153 8.153s8.153-3.649 8.153-8.153V207.626h375.032v183.168c0 17.348 7.36 33.009 19.121 44.025H60.331c-24.276 0-44.025-19.75-44.025-44.026v-30.437c0-4.504-3.649-8.153-8.153-8.153S0 355.853 0 360.357v30.437c0 33.267 27.064 60.331 60.331 60.331H451.682c15.929 0 30.911-6.126 42.287-17.313C505.596 422.377 512 407.1 512 390.794v-73.919a8.151 8.151 0 0 0-8.153-8.153 8.151 8.151 0 0 0-8.153 8.153v73.919c0 11.899-4.673 23.048-13.158 31.392-8.392 8.255-19.469 12.712-31.247 12.624a43.707 43.707 0 0 1-5.088-.342c-21.651-2.765-38.558-21.811-38.558-44.532v-60.559h26.633a8.151 8.151 0 0 0 8.153-8.153V164.688c0-14.686 11.947-26.633 26.633-26.633s26.633 11.947 26.633 26.633v108.705a8.151 8.151 0 0 0 8.152 8.153zM16.306 191.321V77.18h375.032v114.14H16.306zm409.817-26.633V313.07h-18.48V138.055h27.759c-5.807 7.325-9.279 16.581-9.279 26.633z"/><path d="M112.51 95.66a8.151 8.151 0 0 0-8.153 8.153v38.836L66.521 98.507c-4.824-5.627-14.343-2.088-14.343 5.306v60.875c0 4.504 3.649 8.153 8.153 8.153s8.153-3.649 8.153-8.153v-38.836l37.836 44.141c4.829 5.634 14.343 2.081 14.343-5.306v-60.875a8.153 8.153 0 0 0-8.153-8.152zM182.081 111.966a8.151 8.151 0 0 0 8.153-8.153 8.151 8.151 0 0 0-8.153-8.153h-43.482a8.151 8.151 0 0 0-8.153 8.153v60.875a8.151 8.151 0 0 0 8.153 8.153h43.482a8.151 8.151 0 0 0 8.153-8.153 8.151 8.151 0 0 0-8.153-8.153h-35.329v-18.48h17.936a8.151 8.151 0 0 0 8.153-8.153 8.151 8.151 0 0 0-8.153-8.153h-17.936v-9.783h35.329zM279.981 95.974c-4.329-1.243-8.843 1.269-10.078 5.598l-10.842 37.943-8.536-21.339a8.153 8.153 0 0 0-15.14 0l-8.536 21.339-10.842-37.943c-1.237-4.33-5.753-6.84-10.078-5.598a8.15 8.15 0 0 0-5.598 10.078l17.393 60.875a8.155 8.155 0 0 0 7.422 5.903c3.5.195 6.691-1.877 7.987-5.115l9.823-24.558 9.823 24.558a8.154 8.154 0 0 0 15.409-.789l17.393-60.875c1.237-4.327-1.271-8.839-5.6-10.077zM347.312 111.966a8.151 8.151 0 0 0 8.153-8.153 8.151 8.151 0 0 0-8.153-8.153H303.83a8.151 8.151 0 0 0-8.153 8.153v34.786a8.151 8.151 0 0 0 8.153 8.153h35.329v9.783H303.83a8.151 8.151 0 0 0-8.153 8.153 8.151 8.151 0 0 0 8.153 8.153h43.482a8.151 8.151 0 0 0 8.153-8.153v-26.089a8.151 8.151 0 0 0-8.153-8.153h-35.329v-18.48h35.329zM164.688 329.376a8.151 8.151 0 0 0 8.153-8.153v-86.964a8.151 8.151 0 0 0-8.153-8.153H60.331a8.151 8.151 0 0 0-8.153 8.153v86.964a8.151 8.151 0 0 0 8.153 8.153h104.357zm-96.204-86.964h88.051v70.658H68.484v-70.658zM225.563 285.894h121.749a8.151 8.151 0 0 0 8.153-8.153 8.151 8.151 0 0 0-8.153-8.153H225.563a8.151 8.151 0 0 0-8.153 8.153 8.151 8.151 0 0 0 8.153 8.153zM225.563 242.412h121.749c4.504 0 8.153-3.649 8.153-8.153s-3.649-8.153-8.153-8.153H225.563c-4.504 0-8.153 3.649-8.153 8.153s3.649 8.153 8.153 8.153zM225.563 329.376h121.749a8.151 8.151 0 0 0 8.153-8.153 8.151 8.151 0 0 0-8.153-8.153H225.563a8.151 8.151 0 0 0-8.153 8.153 8.151 8.151 0 0 0 8.153 8.153zM225.563 372.858h121.749a8.151 8.151 0 0 0 8.153-8.153 8.151 8.151 0 0 0-8.153-8.153H225.563a8.151 8.151 0 0 0-8.153 8.153 8.151 8.151 0 0 0 8.153 8.153zM43.482 364.705a8.151 8.151 0 0 0 8.153 8.153h121.749a8.151 8.151 0 0 0 8.153-8.153 8.151 8.151 0 0 0-8.153-8.153H51.635a8.151 8.151 0 0 0-8.153 8.153zM51.635 416.34h121.749c4.504 0 8.153-3.649 8.153-8.153s-3.649-8.153-8.153-8.153H51.635c-4.504 0-8.153 3.649-8.153 8.153s3.649 8.153 8.153 8.153zM225.563 416.34h121.749c4.504 0 8.153-3.649 8.153-8.153s-3.649-8.153-8.153-8.153H225.563c-4.504 0-8.153 3.649-8.153 8.153s3.649 8.153 8.153 8.153z"/></svg>